<svg id="Capa_1" data-name="Capa 1" xmlns="http://www.w3.org/2000/svg" viewBox="0 0 595.49 466.45">
  <rect width="595.28" height="340.22" style="fill: #ffce31"/>
  <rect x="0.21" y="430.32" width="595.28" height="36.12" style="fill: #ffce31"/>
  <g>
    <path d="M226.44,332.12s-1.41-41,32.47-38.15v3.77S230.2,295,230.67,332.12Z" transform="translate(0 -232.41)" style="fill: #fff"/>
    <path d="M283.25,283.11s19.23-5.35,29.19,11.91l-2.22,1.78s-10.1-12.67-26.39-11.18Z" transform="translate(0 -232.41)" style="fill: #fff"/>
    <path d="M321.16,293.83s14.88-3.08,14.25,20c0,0,15.83,2.37,6,20.58L339.68,331s6.33-11.08-7.6-14.56c0,0,2.53-19.24-10.92-19.59Z" transform="translate(0 -232.41)" style="fill: #fff"/>
    <path d="M310.39,376.39s16.47,12.35,30.24,1.42l-1.42-3.48s-11.74,10.13-26.77-1.11Z" transform="translate(0 -232.41)" style="fill: #fff"/>
    <g>
      <circle cx="273.79" cy="167.79" r="3.97" style="fill: #fff"/>
      <circle cx="266.13" cy="185.44" r="3.85" style="fill: #fff"/>
      <path d="M372.79,350.91l-20.23-.47s-1.42-11.29-2.83-14.58c0,0,13.18-17.42-7.53-26.83,0,0,6.59-24.47-25.88-23.06,0,0-21.18-26.47-54.12-.05,0,0-56.47-1.36-40.94,58.88,0,0,3.77,28.23-1.88,73.88s-8.47,74.82-8.47,86.59,3.29,16.94,27.29,22.58,64,7.06,108.71-2.82c0,0,15.06-3.29,13.17-22.12s-4.23-30.58-4.23-30.58,27.76-6.59,40-42.36a237.62,237.62,0,0,0,3.76-33.41C400.08,380.09,399.14,354.21,372.79,350.91Zm-106.66,74a7.09,7.09,0,1,1,7.09-7.09A7.09,7.09,0,0,1,266.13,424.94Zm10,22.3a4.23,4.23,0,1,1,4.23-4.23A4.23,4.23,0,0,1,276.14,447.24Zm-2.35-39.62a7.37,7.37,0,1,1,7.36-7.36A7.36,7.36,0,0,1,273.79,407.62ZM247.62,381c3.45,20.74-12.92,106.52-15.63,120.43,6.16-33.07,4.8-119,4.8-119H226.44v-28.7c23.53,24.47,70.12,2.35,70.12,2.35C295.14,374,305.3,381,305.3,381Zm73.54,9.56s2,1,5.87,0l2.82,54.09Zm23.47,88.18c-.68.77-10.08-83.1-12.73-88.18,0,0,3.36,0,8.73-3.34C340.63,387.25,345.31,478,344.63,478.77Zm-20.31-93c-29.18,0-23.53-43.3-23.53-43.3s-4.23,16.95-42.82,16.95-34.83-30.12-34.83-30.12c0-44.24,42.73-39.16,42.73-39.16,25.31-26.46,50,.57,50,.57,26.82-4.71,22.59,21.18,22.59,21.18,18.82,6.11,7.06,25.41,7.06,25.41C351.14,363.62,353.5,385.74,324.32,385.74Zm24.81-5.18h8.13c8.13,0,20.24,1.88,16.47,27.06S353,434.68,353,434.68ZM394.45,417C388,458.26,357,468,357,468v-3.09c19-8.5,25-23,25-23-11.49,15.49-26,18-26,18L354,439.81a36.82,36.82,0,0,0,15.38-9.23c7.18-7.18,11.53-25.89,7.43-42s-25.63-12.31-25.63-12.31c2.05-2.82,2.4-12.82,2.4-12.82s-.87-1.79,13.75-.25S385,382.32,385,382.32c-1-28.26-31.44-22.5-31.44-22.5v-6.08s19.39-1.61,27.59,3.78S400.86,375.72,394.45,417Z" transform="translate(0 -232.41)" style="fill: #fff"/>
    </g>
  </g>
  <text transform="translate(21.85 418.3)" style="font-size: 70px;fill: #1d1d1b;font-family: HoboStd, Hobo Std">Ich hab noch nie..</text>
</svg>
