<svg id="Capa_1" data-name="Capa 1" xmlns="http://www.w3.org/2000/svg" viewBox="0 0 595.28 841.89"><defs><style>.cls-1{fill:#ffce31;}.cls-2{fill:#fff;}.cls-3{fill:#1d1d1b;}</style></defs><rect class="cls-1" y="232.41" width="595.28" height="340.22"/><rect class="cls-1" x="0.21" y="662.73" width="595.28" height="36.12"/><path class="cls-2" d="M226.44,332.12s-1.41-41,32.47-38.15v3.77S230.2,295,230.67,332.12Z"/><path class="cls-2" d="M283.25,283.11s19.23-5.35,29.19,11.91l-2.22,1.78s-10.1-12.67-26.39-11.18Z"/><path class="cls-2" d="M321.16,293.83s14.88-3.08,14.25,20c0,0,15.83,2.37,6,20.58L339.68,331s6.33-11.08-7.6-14.56c0,0,2.53-19.24-10.92-19.59Z"/><path class="cls-2" d="M310.39,376.39s16.47,12.35,30.24,1.42l-1.42-3.48s-11.74,10.13-26.77-1.11Z"/><circle class="cls-2" cx="273.79" cy="400.2" r="3.97"/><circle class="cls-2" cx="266.13" cy="417.85" r="3.85"/><path class="cls-2" d="M372.79,350.91l-20.23-.47s-1.42-11.29-2.83-14.58c0,0,13.18-17.42-7.53-26.83,0,0,6.59-24.47-25.88-23.06,0,0-21.18-26.47-54.12-.05,0,0-56.47-1.36-40.94,58.88,0,0,3.77,28.23-1.88,73.88s-8.47,74.82-8.47,86.59,3.29,16.94,27.29,22.58,64,7.06,108.71-2.82c0,0,15.06-3.29,13.17-22.12s-4.23-30.58-4.23-30.58,27.76-6.59,40-42.36a237.62,237.62,0,0,0,3.76-33.41C400.08,380.09,399.14,354.21,372.79,350.91Zm-106.66,74a7.09,7.09,0,1,1,7.09-7.09A7.09,7.09,0,0,1,266.13,424.94Zm10,22.3a4.23,4.23,0,1,1,4.23-4.23A4.23,4.23,0,0,1,276.14,447.24Zm-2.35-39.62a7.37,7.37,0,1,1,7.36-7.36A7.36,7.36,0,0,1,273.79,407.62ZM247.62,381c3.45,20.74-12.92,106.52-15.63,120.43,6.16-33.07,4.8-119,4.8-119H226.44v-28.7c23.53,24.47,70.12,2.35,70.12,2.35C295.14,374,305.3,381,305.3,381Zm73.54,9.56s2,1,5.87,0l2.82,54.09Zm23.47,88.18c-.68.77-10.08-83.1-12.73-88.18,0,0,3.36,0,8.73-3.34C340.63,387.25,345.31,478,344.63,478.77Zm-20.31-93c-29.18,0-23.53-43.3-23.53-43.3s-4.23,16.95-42.82,16.95-34.83-30.12-34.83-30.12c0-44.24,42.73-39.16,42.73-39.16,25.31-26.46,50,.57,50,.57,26.82-4.71,22.59,21.18,22.59,21.18,18.82,6.11,7.06,25.41,7.06,25.41C351.14,363.62,353.5,385.74,324.32,385.74Zm24.81-5.18h8.13c8.13,0,20.24,1.88,16.47,27.06S353,434.68,353,434.68ZM394.45,417C388,458.26,357,468,357,468v-3.09c19-8.5,25-23,25-23-11.49,15.49-26,18-26,18L354,439.81a36.82,36.82,0,0,0,15.38-9.23c7.18-7.18,11.53-25.89,7.43-42s-25.63-12.31-25.63-12.31c2.05-2.82,2.4-12.82,2.4-12.82s-.87-1.79,13.75-.25S385,382.32,385,382.32c-1-28.26-31.44-22.5-31.44-22.5v-6.08s19.39-1.61,27.59,3.78S400.86,375.72,394.45,417Z"/><path class="cls-3" d="M30,650.71c-1.75,0-3.85,1.33-3.85-24.92,0-34.59,3.64-33.33,4.83-33.33h7.56c.91,0,2.66-.21,2.66,1.12,0,.7-3.71,12.39-3.71,25.91A134.94,134.94,0,0,0,41,649.94c0,.7-.42.77-1.05.77H30Z"/><path class="cls-3" d="M46.21,630.55c0-12,6.09-25.7,19.88-25.7,6.09,0,10.5,3.29,10.5,7.28,0,2.11-1.54,6.17-4.13,6.17-1.61,0-1.33-5.18-7-5.18-7.21,0-9.8,9.52-9.8,15.4,0,6.79,3.22,12.46,9.87,12.46,7.56,0,9.31-6.93,9.94-6.93.35,0,1,1.26,1,4.13,0,8.4-5.53,13.58-13.79,13.58C51.11,651.76,46.21,640.77,46.21,630.55Z"/><path class="cls-3" d="M94,591c.63,0,1.12.77,1.12,1.47,0,1-2.66,7.84-2.66,13.44,0,.84,0,2.17,1.19,2.17a10,10,0,0,0,3.22-1.54,12.62,12.62,0,0,1,5.88-1.68c6.37,0,11.06,4.55,11.06,21.43,0,6.72-1,24.43-3.15,24.43H103.4c-.63,0-2.52.21-2.52-.91,0-.49,3.5-14.35,3.5-23.66,0-10.85-1.82-13-5.25-13C92,613.12,91.85,624,91.85,629c0,14,1.54,18.55,1.54,20.58,0,1.12-1.33,1.12-2,1.12H84.42c-2,0-2,2.38-2-28.7,0-5.6.15-31,4-31Z"/><path class="cls-3" d="M152.39,591c.64,0,1.13.77,1.13,1.47,0,1-2.67,7.84-2.67,13.44,0,.84,0,2.17,1.19,2.17a9.91,9.91,0,0,0,3.23-1.54,12.62,12.62,0,0,1,5.88-1.68c6.37,0,11.06,4.55,11.06,21.43,0,6.72-1,24.43-3.15,24.43h-7.28c-.63,0-2.52.21-2.52-.91,0-.49,3.5-14.35,3.5-23.66,0-10.85-1.82-13-5.25-13-7.14,0-7.29,10.92-7.29,15.89,0,14,1.54,18.55,1.54,20.58,0,1.12-1.33,1.12-2,1.12H142.8c-2,0-2,2.38-2-28.7,0-5.6.14-31,4-31Z"/><path class="cls-3" d="M194.18,621.59c2-.35,3.65-.7,3.65-3,0-3.58-3.72-5.46-6.8-5.46-7.14,0-6.09,6-7.63,6-2.24,0-4.69-2.73-4.69-5.74,0-5.19,5.81-8.55,12.25-8.55,2.24,0,11.83-.07,15.41,9.73,1.47,4.07,1.61,24.79,1.61,27.24,0,3.08.56,4.9.56,7.28,0,1.47-6.58,1.61-12.82,1.61-16.87,0-18.06-8.68-18.06-12.88C177.66,629,186.34,622.92,194.18,621.59Zm4.35,12.25c0-2.45.42-5.39-2.95-5.39-4.13,0-8.47,3.5-8.47,7.77,0,3.92,3.43,6.23,7.14,6.23,4.13,0,4.28-2.1,4.28-5.53Z"/><path class="cls-3" d="M224.63,591c.84,0,2.52,0,2.52,1.54,0,.56-2.1,7.56-2.1,11.69,0,1.12.21,2.24,1.54,2.24a9.29,9.29,0,0,0,2.87-.77,14.4,14.4,0,0,1,4.06-.84c5.95,0,14.29,5.32,14.29,20.1,0,8-2,14.49-7.14,20.3a14.67,14.67,0,0,1-11.07,5.46H217.21c-2.45,0-2.17-23.45-2.17-25.06,0-3.29-.28-34.66,2.87-34.66Zm13.72,34.8c0-11.49-5-14.29-7.91-14.29-5,0-5.95,2.46-5.95,12.68,0,15.12,3.57,14.84,5.39,14.84C236.74,639,238.35,631,238.35,625.79Z"/><path class="cls-3" d="M294.42,650.71c-.91,0-2.45.21-2.45-1.12a84.93,84.93,0,0,0,3.57-24.22c0-5-.42-11.2-5.18-11.2-2.66,0-8.12,1.75-8.12,15.61,0,8.4,2,19.18,2,20s-1.19.91-1.89.91h-5.95c-2.59,0-3.64,1.19-3.64-17.29,0-31.72,2.45-29.76,7.84-29.76,2.45,0,5-.35,5,1.26,0,.7-.63,1.54-.63,2.52,0,.7.35,1.33,1,1.33,1.19,0,4.41-2.87,8.89-2.87,2,0,10.09.28,10.09,18.7,0,27.51-2.17,26.11-4.56,26.11Z"/><path class="cls-3" d="M309.68,628.24c0-11.27,5.39-23.39,17.57-23.39s17.57,12.12,17.57,23.39c0,16.45-9.52,23.52-17.57,23.52S309.68,644.69,309.68,628.24Zm26.46-1.75c0-5.53-2-13.37-8.89-13.37s-8.89,7.84-8.89,13.37,1.82,13.58,8.89,13.58S336.14,632.09,336.14,626.49Z"/><path class="cls-3" d="M347.76,630.55c0-12,6.09-25.7,19.88-25.7,6.09,0,10.5,3.29,10.5,7.28,0,2.11-1.54,6.17-4.13,6.17-1.61,0-1.33-5.18-7-5.18-7.21,0-9.8,9.52-9.8,15.4,0,6.79,3.22,12.46,9.87,12.46,7.56,0,9.31-6.93,9.94-6.93.35,0,1.05,1.26,1.05,4.13,0,8.4-5.53,13.58-13.79,13.58C352.66,651.76,347.76,640.77,347.76,630.55Z"/><path class="cls-3" d="M395.57,591c.63,0,1.12.77,1.12,1.47,0,1-2.66,7.84-2.66,13.44,0,.84,0,2.17,1.19,2.17a10,10,0,0,0,3.22-1.54,12.62,12.62,0,0,1,5.88-1.68c6.37,0,11.06,4.55,11.06,21.43,0,6.72-1,24.43-3.15,24.43H405c-.63,0-2.52.21-2.52-.91,0-.49,3.5-14.35,3.5-23.66,0-10.85-1.82-13-5.25-13-7.14,0-7.28,10.92-7.28,15.89,0,14,1.54,18.55,1.54,20.58,0,1.12-1.33,1.12-2,1.12H386c-2,0-2,2.38-2-28.7,0-5.6.14-31,4-31Z"/><path class="cls-3" d="M463.68,650.71c-.91,0-2.45.21-2.45-1.12a84.93,84.93,0,0,0,3.57-24.22c0-5-.42-11.2-5.18-11.2-2.66,0-8.12,1.75-8.12,15.61,0,8.4,2,19.18,2,20s-1.19.91-1.89.91h-5.95c-2.59,0-3.64,1.19-3.64-17.29,0-31.72,2.45-29.76,7.84-29.76,2.45,0,5-.35,5,1.26,0,.7-.63,1.54-.63,2.52,0,.7.35,1.33,1,1.33,1.19,0,4.41-2.87,8.89-2.87,2,0,10.08.28,10.08,18.7,0,27.51-2.17,26.11-4.55,26.11Z"/><path class="cls-3" d="M484.4,650.71c-3.43,0-3.71,1.47-3.71-23.17,0-23.95,1.12-21.64,3.43-21.64H488c2.94,0,3,.21,3,1.05,0,2.59-.84,5.18-.84,12.82a146.16,146.16,0,0,0,2.73,29.12c0,2.24-2.1,1.82-3.71,1.82Zm-2.94-54.89c0-3,2.59-4.83,5.39-4.83s5.39,1.82,5.39,4.83-2.59,4.62-5.39,4.62S481.46,598.83,481.46,595.82Z"/><path class="cls-3" d="M497.56,630.2c0-17,9.38-25.35,18.76-25.35,7.7,0,14.21,4.34,14.21,12.61,0,15-22.54,11.9-22.54,19.18,0,3.29,5.32,5.67,8.82,5.67,11.48,0,11.48-8.75,12.46-8.75s1.26,3.64,1.26,4.2c0,8.89-6.86,14-15.26,14C502.74,651.76,497.56,641.4,497.56,630.2Zm9.45-6.93c0,.77.35,1.54,1.26,1.54s13.58-2.8,13.58-6.37-3.22-5.32-5.88-5.32C510.3,613.12,507,619.21,507,623.27Z"/><path class="cls-3" d="M535.15,644a7.71,7.71,0,0,1,7.7-7.63,7.7,7.7,0,1,1-7.7,7.63Z"/><path class="cls-3" d="M555.45,644a7.71,7.71,0,0,1,7.7-7.63,7.7,7.7,0,1,1-7.7,7.63Z"/></svg>