<svg id="Capa_1" data-name="Capa 1" xmlns="http://www.w3.org/2000/svg" viewBox="0 0 471.08 243.41">
  <rect width="471.08" height="176.84" style="fill: #ffce31"/>
  <rect y="207.29" width="471.08" height="36.12" style="fill: #ffce31"/>
  <g>
    <path d="M108.42,292.72s-.71-17,16.51-15.81v1.56s-14.59-1.15-14.35,14.25Z" transform="translate(-62.1 -233.52)" style="fill: #fff"/>
    <path d="M137.3,272.41s9.78-2.22,14.85,4.93l-1.14.74a17.93,17.93,0,0,0-13.41-4.63Z" transform="translate(-62.1 -233.52)" style="fill: #fff"/>
    <path d="M156.58,276.85s7.56-1.28,7.24,8.3c0,0,8.05,1,3.06,8.53l-.89-1.44s3.22-4.59-3.86-6c0,0,1.29-8-5.55-8.12Z" transform="translate(-62.1 -233.52)" style="fill: #fff"/>
    <path d="M151.1,311.07s8.37,5.12,15.38.59l-.73-1.44s-6,4.2-13.6-.46Z" transform="translate(-62.1 -233.52)" style="fill: #fff"/>
    <g>
      <ellipse cx="70.39" cy="87.42" rx="2.02" ry="1.65" style="fill: #fff"/>
      <ellipse cx="66.5" cy="94.73" rx="1.95" ry="1.59" style="fill: #fff"/>
      <path d="M182.82,300.51l-10.28-.19s-.72-4.68-1.44-6.05c0,0,6.7-7.22-3.83-11.12,0,0,3.35-10.14-13.15-9.56,0,0-10.77-11-27.51,0,0,0-28.71-.56-20.82,24.41,0,0,1.92,11.7-1,30.62s-4.31,31-4.31,35.89,1.67,7,13.87,9.36,32.54,2.93,55.27-1.17c0,0,7.65-1.36,6.7-9.16a119.41,119.41,0,0,0-2.16-12.68,30,30,0,0,0,20.34-17.56,81.41,81.41,0,0,0,1.91-13.85C196.7,312.61,196.22,301.88,182.82,300.51ZM128.6,331.19c-2,0-3.6-1.31-3.6-2.93s1.61-2.94,3.6-2.94,3.61,1.31,3.61,2.94S130.59,331.19,128.6,331.19Zm5.09,9.25a1.79,1.79,0,1,1,2.15-1.75A2,2,0,0,1,133.69,340.44ZM132.5,324c-2.07,0-3.75-1.37-3.75-3.06s1.68-3,3.75-3,3.74,1.37,3.74,3S134.56,324,132.5,324Zm-13.31-11c1.76,8.59-6.57,44.15-7.94,49.91,3.13-13.71,2.44-49.33,2.44-49.33h-5.27v-11.9c12,10.15,35.65,1,35.65,1-.72,7.41,4.44,10.34,4.44,10.34Zm37.39,4a5.48,5.48,0,0,0,3,0L161,339.38Zm11.93,36.55c-.35.32-5.12-34.45-6.47-36.55a10.93,10.93,0,0,0,4.44-1.39S168.86,353.19,168.51,353.51ZM158.18,315c-14.83,0-12-17.95-12-17.95s-2.15,7-21.77,7-17.7-12.48-17.7-12.48c0-18.34,21.72-16.23,21.72-16.23,12.87-11,25.41.23,25.41.23,13.63-2,11.48,8.78,11.48,8.78,9.57,2.54,3.59,10.54,3.59,10.54C171.82,305.78,173,315,158.18,315Zm12.62-2.15h4.13c4.13,0,10.29.78,8.37,11.22s-10.52,11.21-10.52,11.21Zm23,15.1c-3.26,17.11-19,21.15-19,21.15v-1.28c9.65-3.52,12.7-9.53,12.7-9.53a24.19,24.19,0,0,1-13.21,7.45l-1.06-8.33a20.19,20.19,0,0,0,7.82-3.83c3.65-3,5.87-10.73,3.78-17.42s-13-5.1-13-5.1c1-1.17,1.22-5.32,1.22-5.32s-.44-.74,7-.1,9,7.94,9,7.94c-.52-11.71-16-9.33-16-9.33v-2.52s9.86-.66,14,1.57S197.09,310.79,193.84,327.9Z" transform="translate(-62.1 -233.52)" style="fill: #fff"/>
    </g>
  </g>
</svg>
